<?xml version="1.0" standalone="no"?>
<!DOCTYPE svg PUBLIC "-//W3C//DTD SVG 20010904//EN"
 "http://www.w3.org/TR/2001/REC-SVG-20010904/DTD/svg10.dtd">
<svg version="1.0" xmlns="http://www.w3.org/2000/svg"
 width="500.000000pt" height="500.000000pt" viewBox="0 0 500.000000 500.000000"
 preserveAspectRatio="xMidYMid meet">

<g transform="translate(0.000000,500.000000) scale(0.100000,-0.100000)"
fill="#000000" stroke="none">
<path d="M2394 3981 c-41 -19 -99 -91 -111 -139 -10 -41 5 -35 36 14 80 131
200 103 245 -57 9 -35 24 -89 33 -119 29 -107 81 -178 155 -216 65 -33 137
-32 205 1 51 26 143 99 143 115 0 4 -19 4 -42 -1 -64 -12 -185 -11 -232 3 -72
22 -130 99 -180 240 -24 67 -88 143 -136 162 -51 20 -65 20 -116 -3z"/>
<path d="M2396 3801 c-75 -191 -160 -240 -367 -211 -149 20 -229 0 -282 -72
-39 -53 -14 -170 50 -230 30 -28 29 -10 -2 52 -26 52 -32 99 -15 131 28 51
133 64 241 28 81 -26 231 -36 284 -19 62 21 123 84 141 148 14 47 15 67 4 148
-7 52 -16 94 -20 94 -4 0 -19 -31 -34 -69z"/>
<path d="M2965 3671 c-5 -10 10 -13 99 -25 53 -7 96 -49 96 -94 0 -54 -28
-100 -119 -191 -95 -96 -139 -166 -148 -238 -13 -117 48 -202 187 -258 46 -19
86 -32 88 -30 3 2 -17 32 -43 67 -64 85 -86 131 -92 193 -5 45 -1 63 24 117
16 35 49 86 73 113 86 99 118 222 73 283 -40 54 -79 72 -159 72 -40 0 -75 -4
-79 -9z"/>
<path d="M1820 3443 c0 -5 19 -31 41 -58 58 -69 99 -159 99 -215 0 -57 -42
-148 -100 -215 -140 -162 -117 -332 47 -351 57 -7 123 2 123 16 0 6 -23 10
-50 10 -90 0 -150 41 -150 103 0 52 30 100 118 186 114 113 147 172 147 267 0
61 -4 77 -30 120 -26 42 -42 55 -115 91 -93 46 -130 59 -130 46z"/>
<path d="M3180 2996 c0 -2 11 -28 25 -58 30 -65 32 -107 4 -141 -40 -51 -130
-57 -249 -15 -30 11 -94 22 -142 25 -80 5 -92 4 -142 -21 -113 -56 -149 -138
-127 -291 7 -47 16 -85 21 -85 4 0 15 21 25 48 72 192 171 260 345 233 150
-22 236 -11 288 37 62 58 60 140 -3 233 -23 33 -45 50 -45 35z"/>
<path d="M2099 2840 c-20 -4 -59 -21 -85 -38 -60 -39 -129 -100 -122 -107 2
-3 29 -1 58 5 84 16 189 12 235 -9 63 -28 132 -120 160 -211 15 -48 75 -130
115 -156 86 -57 174 -28 229 76 41 76 38 117 -3 48 -37 -64 -79 -98 -120 -98
-65 0 -113 60 -146 185 -42 157 -89 235 -166 276 -56 30 -103 39 -155 29z"/>
<path d="M1210 1575 l0 -445 65 0 65 0 0 179 c0 169 1 180 23 212 67 99 191
104 254 10 22 -32 23 -43 23 -217 l0 -184 70 0 70 0 0 224 0 224 -39 50 c-58
73 -132 107 -231 107 -57 0 -86 -6 -119 -23 -25 -12 -46 -22 -48 -22 -2 0 -3
74 -3 165 l0 165 -65 0 -65 0 0 -445z"/>
<path d="M2560 1712 c0 -299 -1 -309 -22 -352 -13 -24 -40 -58 -61 -74 -35
-28 -46 -31 -111 -31 -64 0 -77 3 -110 29 -98 75 -111 196 -30 286 58 64 161
82 231 40 19 -11 36 -20 39 -20 2 0 4 34 4 75 0 93 -9 100 -130 100 -101 0
-154 -20 -224 -85 -69 -63 -100 -136 -100 -235 -1 -71 3 -88 32 -147 58 -118
161 -182 292 -182 71 0 94 6 183 52 4 2 7 -6 7 -17 0 -19 6 -21 65 -21 l65 0
0 445 0 445 -65 0 -65 0 0 -308z"/>
<path d="M1853 1944 c-20 -20 -24 -31 -19 -57 9 -44 29 -61 72 -61 69 0 101
82 48 123 -36 28 -70 26 -101 -5z"/>
<path d="M3413 1756 c-84 -27 -159 -91 -205 -178 -20 -37 -23 -58 -23 -143 0
-84 4 -107 22 -141 29 -55 69 -101 117 -135 37 -27 45 -29 138 -29 l98 0 0 65
0 65 -78 0 c-77 0 -78 0 -114 38 -44 44 -58 78 -58 138 0 154 186 255 312 171
l33 -23 3 -227 2 -227 65 0 65 0 0 227 c0 209 -2 230 -21 270 -54 112 -218
172 -356 129z"/>
<path d="M1840 1445 l0 -315 65 0 65 0 0 315 0 315 -65 0 -65 0 0 -315z"/>
<path d="M2935 1746 c-40 -17 -84 -63 -101 -103 -11 -24 -14 -92 -14 -273 l0
-240 64 0 65 0 3 231 3 231 33 29 c29 26 40 29 97 29 l65 0 0 55 0 55 -92 0
c-55 -1 -105 -6 -123 -14z"/>
</g>
</svg>
